<?xml version="1.0" standalone="no"?>
<!DOCTYPE svg PUBLIC "-//W3C//DTD SVG 20010904//EN"
 "http://www.w3.org/TR/2001/REC-SVG-20010904/DTD/svg10.dtd">
<svg version="1.0" xmlns="http://www.w3.org/2000/svg"
 width="260.000000pt" height="260.000000pt" viewBox="0 0 260.000000 260.000000"
 preserveAspectRatio="xMidYMid meet">
<metadata>
Created by potrace 1.11, written by Peter Selinger 2001-2013
</metadata>
<g transform="translate(0.000000,260.000000) scale(0.100000,-0.100000)"
fill="#000000" stroke="none">
<path d="M0 1300 l0 -1300 1300 0 1300 0 0 1300 0 1300 -1300 0 -1300 0 0
-1300z m1431 591 c57 -25 174 -41 307 -41 188 0 278 -25 352 -96 26 -25 50
-36 90 -44 81 -15 151 -53 207 -113 90 -95 129 -201 120 -333 -11 -188 -142
-335 -334 -374 -39 -8 -58 -19 -72 -39 -23 -32 -97 -74 -159 -91 -24 -6 -132
-15 -240 -19 -217 -9 -270 -22 -342 -80 l-37 -30 -28 29 c-55 58 -111 72 -314
81 -235 11 -293 27 -381 104 -16 15 -49 27 -95 35 -148 25 -286 123 -347 248
-31 63 -33 73 -33 177 0 104 2 113 32 170 72 139 237 244 384 245 26 0 43 8
65 31 66 70 167 99 348 99 182 0 297 30 352 91 16 18 18 17 48 -6 18 -13 52
-33 77 -44z"/>
<path d="M1277 1904 c-70 -48 -101 -55 -307 -64 -130 -6 -200 -13 -235 -25
-51 -17 -110 -56 -132 -86 -8 -10 -33 -18 -76 -22 -180 -17 -337 -141 -383
-302 -33 -117 -3 -255 78 -355 63 -80 193 -147 317 -164 31 -5 56 -18 88 -46
68 -59 112 -71 323 -81 209 -10 268 -23 334 -74 25 -19 48 -30 51 -25 13 20
93 60 153 75 38 10 138 20 255 25 224 9 268 21 333 86 33 33 57 46 103 58 125
32 216 96 265 186 72 132 73 266 4 403 -54 108 -168 193 -276 205 -37 4 -54
13 -83 41 -72 75 -169 100 -389 101 -174 0 -306 32 -349 84 -17 20 -17 20 -74
-20z m78 -14 c21 -23 104 -56 165 -65 25 -3 126 -10 226 -14 166 -7 186 -10
240 -35 32 -15 73 -40 89 -55 19 -19 49 -33 84 -40 112 -24 191 -77 249 -169
48 -76 65 -141 60 -235 -8 -178 -113 -303 -298 -353 -48 -13 -78 -29 -113 -61
-71 -62 -117 -73 -352 -83 -219 -9 -276 -21 -340 -69 l-39 -29 -37 29 c-64 50
-108 60 -309 69 -211 9 -263 21 -336 77 -38 30 -64 41 -118 50 -154 26 -299
135 -346 260 -33 87 -32 200 2 275 31 67 104 149 166 185 56 33 153 63 204 63
32 0 48 8 85 39 67 60 112 71 323 82 205 11 266 24 325 68 48 36 47 36 70 11z"/>
<path d="M1290 1868 c-55 -45 -116 -58 -320 -67 -211 -10 -272 -26 -330 -86
-28 -29 -41 -35 -76 -35 -100 0 -260 -78 -318 -155 -15 -20 -39 -60 -53 -91
-22 -48 -25 -66 -21 -142 2 -70 8 -98 30 -142 57 -116 191 -209 333 -232 53
-9 78 -18 104 -41 74 -64 171 -86 371 -87 137 0 214 -17 275 -61 l43 -31 36
27 c59 45 115 56 331 65 237 10 286 22 354 84 34 31 63 47 109 59 132 36 219
103 270 207 23 48 26 67 26 150 0 119 -24 186 -95 265 -55 60 -124 98 -209
116 -39 8 -67 23 -98 50 -68 60 -111 70 -337 79 -217 9 -296 25 -358 73 l-32
24 -35 -29z m55 -98 c6 -28 10 -30 53 -30 l47 -1 -24 -20 c-13 -11 -30 -23
-38 -27 -11 -7 -11 -15 2 -51 l15 -43 -35 27 -36 27 -36 -28 -36 -27 6 24 c4
13 10 34 13 45 4 17 -1 26 -25 40 -41 25 -39 32 11 36 38 3 43 6 52 35 10 38
22 35 31 -7z m-262 -70 c3 -13 14 -20 29 -20 22 -1 22 -1 4 -15 -14 -10 -17
-21 -11 -42 6 -27 6 -27 -14 -9 -21 19 -21 19 -42 0 -20 -18 -20 -18 -14 9 6
21 3 32 -11 42 -18 14 -18 14 4 15 15 0 26 7 29 20 3 11 9 20 13 20 4 0 10 -9
13 -20z m546 -20 l25 0 -21 -15 c-19 -13 -21 -20 -12 -42 9 -25 9 -25 -14 -10
-22 14 -27 14 -46 1 -20 -14 -21 -14 -11 10 8 21 6 28 -13 41 l-21 15 26 0
c19 0 29 7 34 23 l7 22 10 -22 c7 -15 19 -23 36 -23z m-718 -25 c5 4 9 2 9 -4
0 -5 -4 -12 -10 -16 -5 -3 -6 -13 -3 -23 5 -14 3 -15 -7 -5 -11 10 -17 10 -29
0 -12 -10 -14 -9 -8 5 3 10 2 20 -3 23 -5 3 -2 14 8 23 14 15 19 16 25 5 5 -7
12 -11 18 -8z m869 9 c0 -10 6 -14 15 -10 8 3 15 1 15 -4 0 -6 -5 -10 -11 -10
-7 0 -9 -9 -6 -21 4 -16 3 -18 -9 -8 -11 9 -17 9 -28 0 -12 -10 -13 -8 -9 8 3
12 1 21 -6 21 -6 0 -11 4 -11 10 0 5 7 7 15 4 9 -4 15 0 15 10 0 9 5 16 10 16
6 0 10 -7 10 -16z m-45 -103 c11 -5 27 -3 37 3 22 13 35 0 22 -22 -8 -13 -27
-17 -72 -18 -62 -2 -65 1 -39 34 11 13 23 14 52 3z m-377 -28 c-152 -2 -404
-2 -560 0 -156 1 -31 2 277 2 308 0 435 -1 283 -2z m700 0 c-43 -2 -113 -2
-155 0 -43 1 -8 3 77 3 85 0 120 -2 78 -3z m-1362 -64 c4 -8 9 -8 17 0 20 20
27 11 27 -34 0 -33 -4 -45 -15 -45 -8 0 -15 7 -15 15 0 12 -13 15 -55 15 -54
0 -55 0 -55 -29 0 -16 6 -32 13 -35 10 -5 10 -7 0 -12 -7 -3 -13 -21 -13 -40
l0 -34 55 0 c54 0 55 0 55 30 0 25 -4 30 -25 30 -14 0 -25 5 -25 10 0 6 23 10
50 10 28 0 50 -4 50 -10 0 -5 -4 -10 -10 -10 -6 0 -10 -26 -10 -58 l0 -59 -81
-2 c-49 -1 -87 3 -95 10 -9 7 -14 32 -14 65 0 35 -4 54 -12 54 -9 0 -9 3 0 12
7 7 12 30 12 52 0 57 21 76 86 76 29 0 56 -5 60 -11z m232 -1 c9 -9 15 -9 24
0 7 7 22 12 35 12 19 0 23 -5 23 -29 0 -16 -5 -31 -12 -33 -17 -6 22 -70 51
-84 14 -7 19 -14 12 -18 -19 -12 -13 -46 9 -46 15 0 20 -7 20 -29 0 -29 -1
-30 -55 -30 -54 0 -55 1 -55 30 0 19 5 29 15 29 13 0 14 4 5 20 -18 35 -130
24 -130 -12 0 -4 7 -8 15 -8 10 0 15 -10 15 -29 0 -29 -1 -29 -55 -29 -54 1
-55 1 -55 29 0 19 5 29 15 29 20 0 30 27 16 44 -8 10 -5 16 13 25 24 13 63 81
46 81 -6 0 -10 14 -10 30 0 25 4 30 23 30 13 0 28 -5 35 -12z m258 1 c4 -8 9
-8 17 0 6 6 21 11 34 11 19 0 23 -5 23 -30 0 -23 -4 -30 -20 -30 -15 0 -20 -7
-20 -28 0 -15 5 -33 12 -40 9 -9 9 -12 0 -12 -7 0 -12 -14 -12 -35 l0 -35 51
0 c31 0 48 4 44 10 -3 6 1 10 9 10 12 0 16 -10 16 -39 l0 -39 -111 0 -110 0 3
26 c2 19 10 28 26 30 18 3 22 10 22 38 0 20 -5 34 -12 34 -9 0 -9 3 0 12 7 7
12 25 12 40 0 23 -4 28 -25 28 -20 0 -25 5 -25 23 0 13 3 27 7 30 10 11 51 8
59 -4z m230 0 c4 -8 9 -8 17 0 15 15 119 14 141 -2 14 -10 17 -25 14 -72 l-3
-60 -67 -3 c-68 -3 -68 -3 -68 -32 0 -20 5 -30 15 -30 10 0 15 -10 15 -29 0
-28 -1 -28 -55 -29 -52 0 -55 1 -55 24 0 14 6 27 14 30 21 8 20 154 0 154 -9
0 -14 11 -14 30 0 23 5 30 19 30 11 0 23 -5 27 -11z m310 0 c4 -8 9 -8 17 0 6
6 22 11 35 11 24 0 24 -2 18 -46 -5 -43 -4 -48 29 -81 27 -27 33 -39 24 -49
-13 -15 -4 -34 17 -34 9 0 14 -10 14 -29 0 -28 -1 -28 -53 -29 -51 0 -53 1
-51 26 1 15 7 26 13 25 12 -3 14 7 5 31 -5 12 -20 16 -60 16 -43 0 -55 -4 -64
-20 -9 -16 -8 -20 5 -20 10 0 15 -10 15 -29 0 -28 -1 -28 -55 -29 -52 0 -55 1
-55 24 0 14 7 27 18 31 25 9 33 25 20 41 -9 10 -6 18 14 35 34 28 55 70 39 75
-6 2 -11 17 -11 33 0 25 4 29 29 29 17 0 33 -5 37 -11z m374 -8 c5 -11 8 -33
6 -50 -2 -17 2 -38 9 -48 10 -14 10 -20 -1 -31 -8 -7 -14 -34 -14 -61 0 -26
-5 -52 -12 -59 -7 -7 -40 -12 -78 -12 -38 0 -71 5 -78 12 -7 7 -12 35 -12 63
0 28 -5 56 -12 63 -9 9 -9 15 0 24 7 7 12 33 12 59 0 29 5 49 13 52 6 3 44 6
84 6 61 1 74 -2 83 -18z m-337 -298 c-221 -2 -585 -2 -810 0 -224 1 -43 2 402
2 446 0 629 -1 408 -2z m-1046 -100 c-3 -10 -5 -2 -5 17 0 19 2 27 5 18 2 -10
2 -26 0 -35z m43 26 c0 -5 -4 -9 -10 -9 -5 0 -10 7 -10 16 0 8 5 12 10 9 6 -3
10 -10 10 -16z m27 -26 c-3 -10 -5 -2 -5 17 0 19 2 27 5 18 2 -10 2 -26 0 -35z
m93 17 c0 -16 -4 -30 -10 -30 -5 0 -10 14 -10 30 0 17 5 30 10 30 6 0 10 -13
10 -30z m77 -17 c-3 -10 -5 -2 -5 17 0 19 2 27 5 18 2 -10 2 -26 0 -35z m223
17 c0 -16 -4 -30 -10 -30 -5 0 -10 14 -10 30 0 17 5 30 10 30 6 0 10 -13 10
-30z m242 -12 c5 -10 5 -18 0 -18 -12 0 -32 46 -24 55 4 3 8 0 11 -7 2 -7 8
-21 13 -30z m38 10 c0 -23 -3 -29 -11 -21 -6 6 -8 20 -4 32 9 30 15 26 15 -11z
m67 -15 c-3 -10 -5 -2 -5 17 0 19 2 27 5 18 2 -10 2 -26 0 -35z m270 0 c-3
-10 -5 -2 -5 17 0 19 2 27 5 18 2 -10 2 -26 0 -35z m31 16 c-1 -17 -4 -25 -8
-18 -7 10 -2 49 5 49 2 0 3 -14 3 -31z m47 1 c0 -16 -3 -30 -7 -30 -5 0 -8 14
-8 30 0 17 3 30 8 30 4 0 7 -13 7 -30z m-850 -4 c0 -13 -3 -22 -7 -19 -5 2 -8
13 -8 24 0 10 3 19 8 19 4 0 7 -11 7 -24z m45 -1 c0 -8 -4 -17 -10 -20 -6 -4
-10 5 -10 20 0 15 4 24 10 20 6 -3 10 -12 10 -20z m30 -2 c0 -20 -3 -24 -11
-16 -7 7 -9 19 -6 27 10 24 17 19 17 -11z m40 8 c0 -11 -3 -22 -7 -24 -5 -3
-8 6 -8 19 0 13 3 24 8 24 4 0 7 -9 7 -19z m80 0 c0 -11 -3 -22 -7 -24 -5 -3
-8 6 -8 19 0 13 3 24 8 24 4 0 7 -9 7 -19z m96 -29 c-8 -7 -25 8 -37 31 -11
21 -10 21 15 -2 14 -14 24 -26 22 -29z m310 17 c4 -8 1 -8 -14 0 -12 6 -24 16
-28 22 -4 8 -1 8 14 0 12 -6 24 -16 28 -22z m50 10 c19 -22 19 -22 -3 -10 -24
12 -39 31 -25 31 5 0 17 -10 28 -21z m41 -16 c-3 -10 -5 -4 -5 12 0 17 2 24 5
18 2 -7 2 -21 0 -30z m40 0 c-3 -10 -5 -4 -5 12 0 17 2 24 5 18 2 -7 2 -21 0
-30z m150 5 c-3 -7 -5 -2 -5 12 0 14 2 19 5 13 2 -7 2 -19 0 -25z m46 19 c3
-8 1 -20 -4 -28 -6 -10 -9 -7 -9 14 0 29 5 35 13 14z m65 -27 c3 -8 -5 -6 -21
6 -15 10 -27 23 -27 28 0 12 43 -18 48 -34z m-743 0 c3 -5 1 -10 -4 -10 -6 0
-11 5 -11 10 0 6 2 10 4 10 3 0 8 -4 11 -10z m-177 -57 c-75 -2 -201 -2 -280
0 -79 1 -17 3 137 3 154 0 218 -2 143 -3z m775 0 c-84 -2 -222 -2 -305 0 -84
1 -16 3 152 3 168 0 236 -2 153 -3z m-667 -49 c18 -14 18 -15 -3 -4 -28 13
-72 -5 -54 -23 7 -7 15 -6 28 3 15 12 16 12 6 0 -9 -10 -10 -17 -2 -27 17 -20
4 -16 -38 13 -46 31 -52 37 -31 29 10 -4 27 0 40 9 28 20 30 20 54 0z m295 0
c8 -10 21 -13 38 -9 l26 6 -22 -16 c-20 -14 -24 -14 -49 10 -15 14 -22 25 -17
25 6 0 16 -7 24 -16z m-586 -6 c-11 -6 -23 -16 -27 -22 -5 -7 -8 -8 -8 0 0 15
22 34 40 34 11 -1 10 -4 -5 -12z m405 -8 c0 -11 -4 -20 -10 -20 -5 0 -10 2
-10 4 0 2 -3 11 -6 20 -4 11 -1 16 10 16 9 0 16 -8 16 -20z m40 6 c0 -8 -4
-17 -9 -21 -12 -7 -24 12 -16 25 9 15 25 12 25 -4z m100 10 c0 -2 -8 -10 -17
-17 -16 -13 -17 -12 -4 4 13 16 21 21 21 13z m306 -18 c19 -23 19 -23 -1 -7
-11 9 -27 19 -35 22 -13 5 -13 6 1 6 9 1 24 -9 35 -21z m-719 -3 c10 -8 27
-21 38 -29 19 -14 19 -14 -6 -13 -16 1 -25 7 -22 14 7 17 -36 27 -54 11 -15
-12 -15 -11 -2 10 16 26 23 27 46 7z m602 -7 c13 -21 13 -22 -2 -9 -9 7 -24
10 -33 7 -14 -5 -15 -4 -4 9 17 20 23 19 39 -7z m-798 -11 c-10 -9 -11 -8 -5
6 3 10 9 15 12 12 3 -3 0 -11 -7 -18z m531 -19 c-15 -15 -26 -4 -18 18 5 13 9
15 18 6 9 -9 9 -15 0 -24z m-90 7 c0 -5 -5 -11 -11 -13 -6 -2 -11 4 -11 13 0
9 5 15 11 13 6 -2 11 -8 11 -13z m186 7 c7 7 14 9 17 7 3 -3 -7 -16 -22 -30
-14 -13 -23 -18 -19 -11 5 8 1 19 -10 28 -18 14 -18 15 2 5 15 -7 24 -7 32 1z
m108 -10 c-3 -5 -16 -12 -28 -15 -22 -6 -22 -6 2 13 25 19 37 20 26 2z m-655
-5 c-6 -8 -7 -18 -3 -22 4 -5 1 -5 -6 -1 -10 6 -10 11 -1 22 6 8 14 14 16 14
3 0 0 -6 -6 -13z m806 -7 c4 -12 3 -13 -5 -1 -6 8 -17 11 -26 8 -9 -4 -16 -2
-16 4 0 16 43 6 47 -11z m48 10 c3 -5 1 -10 -4 -10 -6 0 -11 5 -11 10 0 6 2
10 4 10 3 0 8 -4 11 -10z m-433 -17 c27 -25 22 -33 -22 -33 -43 0 -45 2 -30
31 13 23 28 24 52 2z m-197 -13 c23 -17 63 -18 90 -5 l30 15 -24 -20 c-13 -11
-32 -20 -43 -20 -19 0 -98 36 -98 45 0 5 31 -5 45 -15z m-250 -10 c10 -11 16
-20 13 -20 -3 0 -13 9 -23 20 -10 11 -16 20 -13 20 3 0 13 -9 23 -20z m105 0
c6 -11 8 -20 6 -20 -3 0 -10 9 -16 20 -6 11 -8 20 -6 20 3 0 10 -9 16 -20z
m504 6 c-32 -22 -67 -28 -98 -16 -16 6 -27 13 -24 16 3 2 17 0 32 -6 20 -7 35
-6 59 4 42 19 56 19 31 2z m127 -19 l-24 -22 19 27 c10 14 21 24 23 22 3 -3
-6 -15 -18 -27z m70 6 c13 -16 12 -17 -3 -4 -17 13 -22 21 -14 21 2 0 10 -8
17 -17z m59 13 c0 -2 -8 -10 -17 -17 -16 -13 -17 -12 -4 4 13 16 21 21 21 13z
m-190 -21 c7 -9 8 -15 2 -15 -5 0 -12 7 -16 15 -3 8 -4 15 -2 15 2 0 9 -7 16
-15z m-495 -5 c-3 -5 -12 -10 -18 -10 -7 0 -6 4 3 10 19 12 23 12 15 0z"/>
<path d="M917 1375 l-17 -35 40 0 40 0 -17 35 c-9 19 -20 35 -23 35 -3 0 -14
-16 -23 -35z"/>
<path d="M1450 1396 c0 -21 5 -24 46 -28 48 -3 62 7 50 37 -4 10 -20 15 -51
15 -41 0 -45 -2 -45 -24z"/>
<path d="M1715 1380 c-20 -39 -20 -40 20 -40 19 0 35 2 35 5 0 9 -30 65 -35
65 -2 0 -11 -13 -20 -30z"/>
<path d="M1960 1397 c0 -13 5 -28 12 -35 9 -9 9 -15 0 -24 -7 -7 -12 -25 -12
-40 0 -27 2 -28 50 -28 48 0 50 1 50 28 0 15 -5 33 -11 39 -8 8 -8 13 0 17 6
4 11 20 11 37 0 28 -1 29 -50 29 -46 0 -50 -2 -50 -23z"/>
</g>
</svg>
